<svg version="1.1" id="Layer_1" xmlns="http://www.w3.org/2000/svg" xmlns:xlink="http://www.w3.org/1999/xlink" x="0px" y="0px"
	 width="100%" viewBox="0 0 160 160" enable-background="new 0 0 160 160" xml:space="preserve">
<path fill="#141414" opacity="1.000000" stroke="none" 
	d="
M1.000000,78.000000 
	C1.000000,72.645073 1.000000,67.290138 1.388743,61.493290 
	C2.851391,62.427486 4.282476,63.654781 4.929869,65.208603 
	C6.632127,69.294228 7.301348,73.968109 9.640613,77.596214 
	C13.949174,84.278595 19.904661,85.246918 27.062342,82.221191 
	C29.308836,81.271545 32.216038,81.496773 34.767673,81.740547 
	C39.587387,82.201019 42.508545,80.379402 43.518612,75.750282 
	C44.360302,71.892838 42.362217,68.809967 37.647346,68.192223 
	C32.648178,67.537224 30.039843,63.497986 29.013506,60.245621 
	C27.740120,56.210381 25.287785,55.284401 22.335175,53.919014 
	C20.429691,53.037857 18.243174,52.235889 16.921537,50.743874 
	C14.910423,48.473499 13.539913,45.635674 11.428240,42.297218 
	C12.148622,42.060543 13.849890,41.654305 15.413332,40.944489 
	C16.939222,40.251720 18.495533,39.440498 19.730906,38.336956 
	C21.562050,36.701214 23.336000,34.913719 24.751659,32.919231 
	C27.519804,29.019264 31.015644,26.542864 35.829697,25.955818 
	C36.277325,25.901232 36.693394,24.994329 36.993362,24.415421 
	C39.620739,19.344805 44.461914,19.117729 49.280945,18.485233 
	C51.079422,18.249184 52.858646,17.085049 54.417759,16.011635 
	C56.219437,14.771217 57.892342,11.823235 59.404549,11.962847 
	C64.294838,12.414339 69.299072,13.412030 73.840393,15.240149 
	C76.892654,16.468843 79.120071,16.595882 81.869438,14.922314 
	C84.077003,16.602859 86.031929,18.105108 88.045670,19.966709 
	C88.675079,21.710567 89.245659,23.095074 89.816238,24.479580 
	C90.321976,24.646671 90.827705,24.813761 91.333435,24.980852 
	C92.180290,23.346901 93.027138,21.712948 93.582588,20.641247 
	C96.341339,22.049385 98.145706,23.743198 99.977013,23.772854 
	C108.410233,23.909407 116.653442,22.847744 124.230057,18.576845 
	C128.133896,16.376268 129.297638,17.336618 128.819336,22.294317 
	C127.855904,29.954645 127.855560,30.019464 120.267952,29.979591 
	C114.061577,29.946978 109.230667,32.339523 105.666405,37.461536 
	C104.999847,38.419426 103.724197,38.953476 102.428795,39.903824 
	C102.285698,33.852570 99.074272,29.637510 93.787605,30.237257 
	C83.717659,31.379646 75.212120,26.338339 65.932968,24.503231 
	C60.290859,23.387409 52.694996,25.971128 49.560722,30.801525 
	C46.721603,30.924744 44.329025,31.004374 41.523232,31.069460 
	C39.161819,31.054916 37.213627,31.054916 35.265430,31.054916 
	C35.279495,31.562504 35.293560,32.070091 35.307625,32.577679 
	C37.468025,32.577679 39.628429,32.577679 42.261852,32.658012 
	C48.163300,33.163803 53.591724,33.589264 59.010361,34.006893 
	C59.000568,33.999065 58.988785,33.976936 58.992287,34.314713 
	C59.643066,35.768398 60.290348,36.884308 61.040913,38.335884 
	C63.692886,42.920021 66.142876,47.233612 68.868980,51.365005 
	C69.452499,52.249321 71.036919,52.473183 72.443497,53.167969 
	C73.152657,54.545128 73.578575,55.755611 73.581726,56.973999 
	C67.449005,57.698246 64.226540,54.787449 62.020569,49.826660 
	C60.751972,46.973835 58.909451,44.337040 57.073963,41.783653 
	C53.269588,36.491310 41.647186,34.899487 35.531830,38.917450 
	C36.809200,41.335785 37.698254,44.159363 39.499611,46.162544 
	C42.214821,49.181950 42.913853,52.031315 40.570793,55.246830 
	C38.311157,52.280167 36.291691,49.575512 34.140411,46.538101 
	C31.792198,41.987438 27.508959,38.237228 31.171892,32.569035 
	C27.743113,34.022278 26.382538,36.368313 27.889721,39.548756 
	C29.149485,42.207100 31.013000,44.579330 32.741634,47.390587 
	C33.046707,48.611942 33.669365,50.057281 33.323017,50.347935 
	C29.395975,53.643482 33.021641,55.463619 34.225632,57.746155 
	C34.544384,57.302151 34.863140,56.858147 35.181896,56.414143 
	C36.772270,56.965660 38.362640,57.517178 40.221924,58.182121 
	C40.666359,58.211624 40.841892,58.127693 41.019714,58.012039 
	C41.021999,57.980320 40.959137,57.970634 40.852444,58.335289 
	C43.803802,62.997334 46.861858,67.294724 50.005943,71.862778 
	C50.749130,73.426979 51.406288,74.720528 52.126102,76.316971 
	C52.808979,77.430466 53.429199,78.241066 54.105095,79.390717 
	C57.524601,85.003250 60.839832,90.309074 64.303207,95.516357 
	C64.839775,96.323097 66.054703,96.678673 66.921921,97.396362 
	C66.887917,97.549828 66.908623,97.863525 66.724228,97.922455 
	C66.539841,97.981384 66.156044,98.032295 65.943039,98.314636 
	C65.460838,99.740356 65.191643,100.883743 64.581902,102.104965 
	C59.796303,105.546173 55.447292,109.047134 50.879948,112.235313 
	C46.029202,115.621315 42.426247,121.124367 35.502945,121.203415 
	C34.478352,121.215103 32.812096,123.208717 32.589767,124.485191 
	C31.900076,128.444931 32.244442,132.616653 31.311867,136.495590 
	C29.365782,144.590103 26.447489,152.509186 29.000000,161.000000 
	C26.629442,161.000000 24.258884,161.000000 21.449171,160.570206 
	C22.020586,153.493210 21.443985,146.516663 25.564377,140.507538 
	C26.166901,139.628830 25.482958,136.564621 24.729385,136.281525 
	C21.170263,134.944473 20.960165,132.583328 21.574932,129.466904 
	C21.859514,128.024292 21.623487,126.478966 21.623487,124.980209 
	C21.248791,124.914261 20.874092,124.848320 20.499395,124.782372 
	C19.662451,125.860405 18.825508,126.938438 17.715618,128.368042 
	C16.793974,126.870956 16.059498,125.677902 15.172914,124.237762 
	C19.927176,121.658539 19.179319,117.460068 18.881922,113.525482 
	C18.350262,106.491600 20.099430,103.153267 26.708574,100.690392 
	C30.024675,99.454643 31.112280,97.872719 30.163898,94.361732 
	C29.283482,91.102371 27.788496,90.259605 24.443018,90.705132 
	C18.713572,91.468124 12.767837,92.028580 8.349017,86.924179 
	C5.827598,84.011566 3.445067,80.978714 1.000000,78.000000 
M50.395191,99.264969 
	C52.059574,99.073982 53.723957,98.882996 55.388340,98.692009 
	C54.956120,97.182114 54.614319,95.637535 54.053928,94.176804 
	C53.769356,93.435028 53.220898,92.506424 52.564209,92.253876 
	C51.078110,91.682320 48.377663,90.787918 48.079388,91.251816 
	C47.132893,92.723885 46.675125,94.788788 46.814522,96.562744 
	C46.884052,97.447601 48.664814,98.198006 50.395191,99.264969 
M60.270565,16.385771 
	C59.755150,16.813822 59.239731,17.241873 58.724316,17.669920 
	C59.201103,17.983116 59.677891,18.296310 60.154678,18.609507 
	C60.363850,17.934410 60.573021,17.259314 60.270565,16.385771 
M29.097382,131.302063 
	C28.624708,131.803787 28.152035,132.305527 27.679365,132.807266 
	C28.111774,132.954178 28.544186,133.101105 28.976597,133.248016 
	C29.175465,132.645981 29.374331,132.043930 29.097382,131.302063 
M28.830835,50.433762 
	C28.737106,50.117390 28.648159,49.799225 28.532635,49.491028 
	C28.527878,49.478340 28.273741,49.559128 28.135786,49.596367 
	C28.255169,49.905067 28.374550,50.213764 28.830835,50.433762 
z"/>
<path fill="#181818" opacity="1.000000" stroke="none" 
	d="
M81.616791,14.744018 
	C79.120071,16.595882 76.892654,16.468843 73.840393,15.240149 
	C69.299072,13.412030 64.294838,12.414339 59.404549,11.962847 
	C57.892342,11.823235 56.219437,14.771217 54.417759,16.011635 
	C52.858646,17.085049 51.079422,18.249184 49.280945,18.485233 
	C44.461914,19.117729 39.620739,19.344805 36.993362,24.415421 
	C36.693394,24.994329 36.277325,25.901232 35.829697,25.955818 
	C31.015644,26.542864 27.519804,29.019264 24.751659,32.919231 
	C23.336000,34.913719 21.562050,36.701214 19.730906,38.336956 
	C18.495533,39.440498 16.939222,40.251720 15.413332,40.944489 
	C13.849890,41.654305 12.148622,42.060543 11.428240,42.297218 
	C13.539913,45.635674 14.910423,48.473499 16.921537,50.743874 
	C18.243174,52.235889 20.429691,53.037857 22.335175,53.919014 
	C25.287785,55.284401 27.740120,56.210381 29.013506,60.245621 
	C30.039843,63.497986 32.648178,67.537224 37.647346,68.192223 
	C42.362217,68.809967 44.360302,71.892838 43.518612,75.750282 
	C42.508545,80.379402 39.587387,82.201019 34.767673,81.740547 
	C32.216038,81.496773 29.308836,81.271545 27.062342,82.221191 
	C19.904661,85.246918 13.949174,84.278595 9.640613,77.596214 
	C7.301348,73.968109 6.632127,69.294228 4.929869,65.208603 
	C4.282476,63.654781 2.851391,62.427486 1.388743,61.025684 
	C1.000000,58.629444 1.000000,56.258884 1.283155,53.370995 
	C2.047176,51.903893 2.528042,50.954132 3.008742,49.629688 
	C3.011084,48.505905 3.013594,47.756798 3.319050,46.859741 
	C5.493928,43.831821 7.284400,40.894657 9.256866,38.085274 
	C12.222184,33.861767 15.671141,29.935240 18.255688,25.498671 
	C20.967133,20.844278 23.270630,15.979506 29.024044,14.592985 
	C32.496078,13.756256 35.851658,13.307856 36.683483,8.864074 
	C36.830608,8.078101 38.713627,7.343503 39.904049,7.082595 
	C42.486069,6.516689 45.138130,6.269189 47.762405,5.897532 
	C50.654381,5.487962 52.859653,4.349609 53.000000,1.000000 
	C82.687561,1.000000 112.375122,1.000000 142.519287,1.387181 
	C141.859070,4.447731 141.058182,7.316759 139.551910,9.748951 
	C137.250031,13.465826 134.527985,16.933329 131.828873,20.385168 
	C131.208389,21.178696 129.956757,21.478722 128.995590,22.005857 
	C129.297638,17.336618 128.133896,16.376268 124.230057,18.576845 
	C116.653442,22.847744 108.410233,23.909407 99.977013,23.772854 
	C98.145706,23.743198 96.341339,22.049385 93.582588,20.641247 
	C93.027138,21.712948 92.180290,23.346901 91.333435,24.980852 
	C90.827705,24.813761 90.321976,24.646671 89.816238,24.479580 
	C89.245659,23.095074 88.675079,21.710567 88.188095,19.699097 
	C86.701279,16.711826 85.609482,13.627738 83.430916,12.187142 
	C81.075760,10.629776 81.161369,13.047391 81.616791,14.744018 
M21.045774,59.166309 
	C17.818367,57.868393 15.076464,57.763607 12.816167,61.196751 
	C9.214508,66.667267 9.165101,71.252426 13.144460,75.754341 
	C17.009268,80.126663 20.117292,80.591202 26.306974,76.863426 
	C28.917645,75.291122 30.496540,75.455994 32.937824,77.162033 
	C34.615582,78.334511 37.428604,78.749489 39.415211,78.245560 
	C40.401756,77.995308 41.689812,74.061104 41.047707,73.292992 
	C39.771946,71.766869 37.051220,70.228172 35.289288,70.568321 
	C30.823620,71.430412 29.160830,69.100868 27.929377,65.739403 
	C27.141535,63.588844 26.590845,61.351406 25.941837,59.179680 
	C24.594976,59.238529 23.154161,59.301479 21.045774,59.166309 
z"/>
<path fill="#111111" opacity="1.000000" stroke="none" 
	d="
M151.000000,1.000000 
	C154.314026,1.000000 157.628052,1.000000 161.000000,1.000000 
	C161.000000,22.687531 161.000000,44.375107 160.585785,66.535156 
	C157.908890,67.455269 155.587006,67.711388 153.395523,68.389153 
	C148.346039,69.950806 143.718307,70.404404 138.624268,67.615005 
	C132.456299,64.237534 125.645683,63.788193 119.015015,66.648041 
	C119.355766,65.197220 119.677727,64.098541 120.299911,62.843506 
	C121.078194,61.463322 121.556244,60.239498 122.261147,58.743877 
	C122.992210,56.646736 123.496414,54.821384 123.990158,52.613747 
	C123.953705,50.429676 123.585983,48.552635 123.963226,46.839649 
	C125.309334,40.727135 124.641830,39.119442 118.992592,36.320705 
	C117.917213,35.787945 116.852898,35.232861 115.783478,34.688076 
	C115.852333,34.254913 115.921196,33.821754 115.990051,33.388592 
	C117.499290,33.388592 119.039772,33.584820 120.511681,33.350395 
	C124.342377,32.740299 128.619873,32.792141 131.829803,30.993122 
	C135.496674,28.938007 138.233276,25.385386 143.100235,25.603712 
	C143.953049,25.641968 145.264465,24.085634 145.717911,22.996677 
	C148.648148,15.959611 151.818344,8.947273 151.000000,1.000000 
z"/>
<path fill="#131313" opacity="1.000000" stroke="none" 
	d="
M150.555832,1.000000 
	C151.818344,8.947273 148.648148,15.959611 145.717911,22.996677 
	C145.264465,24.085634 143.953049,25.641968 143.100235,25.603712 
	C138.233276,25.385386 135.496674,28.938007 131.829803,30.993122 
	C128.619873,32.792141 124.342377,32.740299 120.511681,33.350395 
	C119.039772,33.584820 117.499290,33.388592 115.990051,33.388592 
	C115.921196,33.821754 115.852333,34.254913 115.783478,34.688076 
	C116.852898,35.232861 117.917213,35.787945 118.992592,36.320705 
	C124.641830,39.119442 125.309334,40.727135 123.963226,46.839649 
	C123.585983,48.552635 123.953705,50.429676 123.654907,52.560490 
	C121.461792,47.930126 116.514511,46.259262 112.932022,43.128983 
	C112.569305,42.812050 112.393913,42.290760 112.078873,41.907665 
	C109.649529,38.953560 107.293121,40.162083 105.468109,42.408791 
	C102.160324,46.480896 99.139626,50.786205 95.716408,55.123299 
	C93.414154,55.738819 91.394585,56.225201 89.191032,56.755894 
	C89.125687,57.698284 89.047844,58.821007 88.633560,59.994217 
	C86.855637,61.645126 85.414162,63.245548 83.742538,65.059814 
	C82.488617,65.319733 80.947113,65.813675 80.531723,65.333473 
	C78.836517,63.373798 77.485695,61.116219 75.895363,58.694614 
	C75.189980,57.935928 74.597229,57.451015 74.004486,56.966099 
	C73.578575,55.755611 73.152657,54.545128 72.274666,52.858440 
	C68.550537,47.586918 65.278481,42.791599 61.926460,37.681599 
	C60.893921,36.236927 59.941353,35.106930 58.988785,33.976936 
	C58.988785,33.976936 59.000568,33.999065 58.882347,33.662724 
	C55.845169,32.470234 52.926220,31.614084 50.007267,30.757936 
	C52.694996,25.971128 60.290859,23.387409 65.932968,24.503231 
	C75.212120,26.338339 83.717659,31.379646 93.787605,30.237257 
	C99.074272,29.637510 102.285698,33.852570 102.428795,39.903824 
	C103.724197,38.953476 104.999847,38.419426 105.666405,37.461536 
	C109.230667,32.339523 114.061577,29.946978 120.267952,29.979591 
	C127.855560,30.019464 127.855904,29.954645 128.819336,22.294319 
	C129.956757,21.478722 131.208389,21.178696 131.828873,20.385168 
	C134.527985,16.933329 137.250031,13.465826 139.551910,9.748951 
	C141.058182,7.316759 141.859070,4.447731 142.987946,1.387181 
	C145.370560,1.000000 147.741104,1.000000 150.555832,1.000000 
z"/>
<path fill="#111111" opacity="1.000000" stroke="none" 
	d="
M1.000000,78.467941 
	C3.445067,80.978714 5.827598,84.011566 8.349017,86.924179 
	C12.767837,92.028580 18.713572,91.468124 24.443018,90.705132 
	C27.788496,90.259605 29.283482,91.102371 30.163898,94.361732 
	C31.112280,97.872719 30.024675,99.454643 26.708574,100.690392 
	C20.099430,103.153267 18.350262,106.491600 18.881922,113.525482 
	C19.179319,117.460068 19.927176,121.658539 15.172914,124.237762 
	C16.059498,125.677902 16.793974,126.870956 17.715618,128.368042 
	C18.825508,126.938438 19.662451,125.860405 20.499395,124.782372 
	C20.874092,124.848320 21.248791,124.914261 21.623487,124.980209 
	C21.623487,126.478966 21.859514,128.024292 21.574932,129.466904 
	C20.960165,132.583328 21.170263,134.944473 24.729385,136.281525 
	C25.482958,136.564621 26.166901,139.628830 25.564377,140.507538 
	C21.443985,146.516663 22.020586,153.493210 21.005009,160.570206 
	C18.958334,161.000000 16.916666,161.000000 14.437744,160.552582 
	C14.001920,159.440338 13.944406,158.769272 14.013882,158.111633 
	C14.722845,151.400787 16.422392,144.619156 11.395177,138.582123 
	C10.623922,137.655960 11.144744,135.680145 11.006917,134.195480 
	C10.490057,128.627792 9.711487,123.069344 9.549070,117.492348 
	C9.495428,115.650368 10.518364,113.170151 11.908410,112.023819 
	C14.516850,109.872704 14.239370,108.163475 11.515209,107.399513 
	C7.514490,106.277550 6.339252,104.487396 7.776835,100.529663 
	C8.080560,99.693481 6.833958,97.729324 5.805640,97.114388 
	C4.462084,96.310944 2.624844,96.333061 1.000000,96.000000 
	C1.000000,90.311958 1.000000,84.623917 1.000000,78.467941 
z"/>
<path fill="#0E0E0E" opacity="1.000000" stroke="none" 
	d="
M1.000000,96.468658 
	C2.624844,96.333061 4.462084,96.310944 5.805640,97.114388 
	C6.833958,97.729324 8.080560,99.693481 7.776835,100.529663 
	C6.339252,104.487396 7.514490,106.277550 11.515209,107.399513 
	C14.239370,108.163475 14.516850,109.872704 11.908410,112.023819 
	C10.518364,113.170151 9.495428,115.650368 9.549070,117.492348 
	C9.711487,123.069344 10.490057,128.627792 11.006917,134.195480 
	C11.144744,135.680145 10.623922,137.655960 11.395177,138.582123 
	C16.422392,144.619156 14.722845,151.400787 14.013882,158.111633 
	C13.944406,158.769272 14.001920,159.440338 14.000244,160.552582 
	C9.691118,161.000000 5.382237,161.000000 1.000000,161.000000 
	C1.000000,139.645828 1.000000,118.291573 1.000000,96.468658 
z"/>
<path fill="#1A1A1A" opacity="1.000000" stroke="none" 
	d="
M161.000000,77.000000 
	C161.000000,79.700630 161.000000,82.401253 160.638870,85.636078 
	C157.281677,86.968735 153.524414,89.273727 151.459045,88.230186 
	C147.919861,86.441986 145.705719,87.703445 142.845886,88.694519 
	C137.865189,86.589119 135.676987,82.266571 132.811905,78.472496 
	C131.508362,76.746277 128.365189,74.457787 127.206863,74.979324 
	C124.790901,76.067139 122.842529,78.660210 121.299934,81.024879 
	C120.523834,82.214577 121.067177,84.258003 120.994011,85.914497 
	C120.663765,93.391640 116.775291,99.056038 111.433098,103.770607 
	C108.931664,105.978157 105.863075,107.543045 102.935150,109.476021 
	C102.402664,108.844994 101.445152,107.710312 100.487640,106.575623 
	C100.012428,106.680885 99.537209,106.786156 99.061996,106.891418 
	C99.061996,110.271454 99.061996,113.651497 99.055984,117.488266 
	C99.056999,121.307022 99.064026,124.669044 99.059586,128.472961 
	C98.662003,131.948410 98.275864,134.981964 97.820389,137.550568 
	C97.601036,130.787964 97.451019,124.490334 97.455391,117.766357 
	C97.608063,114.947327 97.606354,112.554634 97.700424,109.733055 
	C97.810417,105.522652 97.824631,101.741127 97.976425,97.706131 
	C98.425987,96.968002 98.737968,96.483360 99.415482,95.982376 
	C102.997437,95.161407 106.366898,94.713844 109.375519,93.424362 
	C111.322853,92.589745 113.423828,90.820717 114.242126,88.941772 
	C115.533875,85.975677 115.609688,82.505157 116.575996,79.363747 
	C117.263344,77.129234 118.049995,74.490845 119.688972,73.059196 
	C126.541977,67.073082 131.382080,67.835800 137.185303,75.270172 
	C141.579956,80.900070 145.925980,81.954079 152.413086,79.366669 
	C155.154007,78.273438 158.130554,77.770981 161.000000,77.000000 
z"/>
<path fill="#232323" opacity="1.000000" stroke="none" 
	d="
M99.071045,128.031067 
	C99.064026,124.669044 99.056999,121.307022 99.471352,117.479828 
	C107.397545,116.827415 117.678413,109.082855 120.209694,102.128960 
	C121.233154,99.317329 122.481964,95.408112 124.696373,94.438965 
	C130.484131,91.905907 136.861206,90.719368 143.003311,88.995972 
	C145.705719,87.703445 147.919861,86.441986 151.459045,88.230186 
	C153.524414,89.273727 157.281677,86.968735 160.638870,86.085136 
	C161.000000,89.361290 161.000000,92.722572 160.601715,96.554581 
	C156.249649,98.332687 153.105621,97.267159 150.236526,94.232071 
	C149.529419,93.484062 147.451416,94.031998 145.574280,93.985489 
	C143.427124,93.981857 141.709290,93.976936 139.701370,93.810760 
	C132.486481,93.823532 127.916779,98.752426 128.806946,105.309570 
	C129.357742,109.366806 129.085785,113.080040 125.133415,115.288857 
	C116.683403,120.011223 109.254662,126.851074 99.071045,128.031067 
z"/>
<path fill="#181818" opacity="1.000000" stroke="none" 
	d="
M29.399996,161.000000 
	C26.447489,152.509186 29.365782,144.590103 31.311867,136.495590 
	C32.244442,132.616653 31.900076,128.444931 32.589767,124.485191 
	C32.812096,123.208717 34.478352,121.215103 35.502945,121.203415 
	C42.426247,121.124367 46.029202,115.621315 50.879948,112.235313 
	C55.447292,109.047134 59.796303,105.546173 64.595245,102.511925 
	C65.284279,104.889420 65.619431,106.937790 66.020645,109.386017 
	C66.038376,110.862968 65.990059,111.940063 65.751389,113.330963 
	C65.336189,115.110107 65.111336,116.575455 64.509567,118.072189 
	C54.971012,120.310379 46.710789,124.403458 38.186771,129.624588 
	C44.486996,132.172424 44.486996,132.172424 44.359997,134.522385 
	C42.169605,136.052002 40.439293,136.861450 39.243896,138.162415 
	C33.265762,144.668488 32.418587,152.656555 33.000000,161.000000 
	C31.933331,161.000000 30.866661,161.000000 29.399996,161.000000 
z"/>
<path fill="#2B2B2B" opacity="1.000000" stroke="none" 
	d="
M93.000000,161.000000 
	C90.957680,161.000000 88.915367,161.000000 86.521973,160.613037 
	C87.779366,154.862503 89.387840,149.498917 91.256966,144.055725 
	C91.692429,143.926529 91.867241,143.876968 92.388901,143.882996 
	C94.147675,142.959198 95.559601,141.979797 97.300720,141.026413 
	C98.948349,140.443909 100.375137,139.993637 101.556335,139.184738 
	C102.876434,138.280716 103.842606,136.842133 105.189522,135.997879 
	C113.280960,130.926147 121.284050,125.681114 129.630005,121.059891 
	C134.628159,118.292351 135.356918,114.965790 133.539108,110.032745 
	C133.012360,108.603294 133.801056,106.689117 134.140396,105.301910 
	C135.022095,106.712090 135.549103,108.050789 136.513519,108.881920 
	C140.374924,112.209648 141.040924,115.773636 137.420090,119.570190 
	C132.087341,125.161781 126.973129,131.042740 121.105881,136.022964 
	C113.933838,142.110718 103.845207,144.553787 98.991287,153.663895 
	C98.591728,154.413803 97.079659,154.518982 96.540779,155.256912 
	C95.218498,157.067566 94.162888,159.072952 93.000000,161.000000 
z"/>
<path fill="#181818" opacity="1.000000" stroke="none" 
	d="
M161.000000,76.545883 
	C158.130554,77.770981 155.154007,78.273438 152.413086,79.366669 
	C145.925980,81.954079 141.579956,80.900070 137.185303,75.270172 
	C131.382080,67.835800 126.541977,67.073082 119.688972,73.059196 
	C118.049995,74.490845 117.263344,77.129234 116.575996,79.363747 
	C115.609688,82.505157 115.533875,85.975677 114.242126,88.941772 
	C113.423828,90.820717 111.322853,92.589745 109.375519,93.424362 
	C106.366898,94.713844 102.997437,95.161407 99.505348,95.657349 
	C101.134659,91.917175 103.039627,88.485695 105.139877,84.844627 
	C106.198555,83.376434 107.061958,82.117836 108.226982,80.763382 
	C110.360603,77.780945 112.192619,74.894379 114.318527,71.856140 
	C116.073700,70.136375 117.534958,68.568275 118.996223,67.000175 
	C125.645683,63.788193 132.456299,64.237534 138.624268,67.615005 
	C143.718307,70.404404 148.346039,69.950806 153.395523,68.389153 
	C155.587006,67.711388 157.908890,67.455269 160.585785,67.003815 
	C161.000000,70.030594 161.000000,73.061188 161.000000,76.545883 
z"/>
<path fill="#333333" opacity="1.000000" stroke="none" 
	d="
M93.463181,161.000000 
	C94.162888,159.072952 95.218498,157.067566 96.540779,155.256912 
	C97.079659,154.518982 98.591728,154.413803 98.991287,153.663895 
	C103.845207,144.553787 113.933838,142.110718 121.105881,136.022964 
	C126.973129,131.042740 132.087341,125.161781 137.420090,119.570190 
	C141.040924,115.773636 140.374924,112.209648 136.513519,108.881920 
	C135.549103,108.050789 135.022095,106.712090 134.143036,104.873024 
	C133.077347,99.030510 135.451065,95.862015 139.991455,93.972008 
	C141.709290,93.976936 143.427124,93.981857 145.701019,94.276779 
	C146.510773,95.369911 146.764465,96.173065 146.572937,96.982460 
	C143.284317,97.770546 139.236313,97.665466 137.863434,99.530060 
	C135.455399,102.800560 137.623276,106.262001 140.482895,109.093613 
	C143.714783,112.293816 143.473999,117.555489 140.318787,121.716019 
	C139.227310,123.155281 138.104996,124.571159 136.988800,126.238670 
	C136.980820,126.479637 136.971237,126.961731 136.642029,126.969475 
	C135.873093,126.983353 135.433380,126.989479 134.770020,127.073746 
	C134.359833,127.767471 134.173309,128.383057 133.986603,129.372452 
	C133.984787,130.493500 133.983185,131.240723 133.680573,132.148193 
	C131.267212,137.692703 127.522728,141.667297 122.731445,144.779404 
	C120.234741,146.401108 117.497070,147.833023 115.446053,149.918823 
	C112.051567,153.370850 109.124191,157.282196 106.000000,161.000000 
	C101.975456,161.000000 97.950912,161.000000 93.463181,161.000000 
z"/>
<path fill="#1F1F1F" opacity="1.000000" stroke="none" 
	d="
M54.000000,161.000000 
	C49.643101,161.000000 45.286201,161.000000 40.548531,160.619232 
	C40.540386,157.624146 41.142662,155.018600 41.242664,152.393921 
	C41.544914,144.461075 44.059536,141.252808 51.781456,138.625656 
	C53.286129,138.113708 55.239143,136.536163 55.498695,135.168060 
	C56.521751,129.775482 60.205132,127.939949 64.901398,127.456825 
	C65.253197,130.926987 65.583351,133.956528 65.980591,137.177963 
	C66.047668,137.369858 66.070717,137.775757 66.031845,138.070099 
	C65.974686,138.561523 65.956406,138.758606 65.891098,138.991333 
	C65.844070,139.026978 66.024353,139.033524 66.210678,139.016312 
	C66.397011,138.999100 66.770164,138.970566 66.883682,139.324188 
	C68.661896,141.461624 70.326599,143.245438 71.861946,145.284149 
	C71.165771,145.745026 70.426926,146.290665 70.058838,146.104263 
	C66.524422,144.314301 64.729240,145.557129 62.483120,148.745911 
	C60.901516,150.991287 57.125534,151.627838 54.493172,153.248795 
	C53.958088,153.578262 54.075665,155.094269 54.033607,156.069382 
	C53.962833,157.710342 54.005219,159.356201 54.000000,161.000000 
z"/>
<path fill="#1D1D1D" opacity="1.000000" stroke="none" 
	d="
M64.879761,127.016212 
	C60.205132,127.939949 56.521751,129.775482 55.498695,135.168060 
	C55.239143,136.536163 53.286129,138.113708 51.781456,138.625656 
	C44.059536,141.252808 41.544914,144.461075 41.242664,152.393921 
	C41.142662,155.018600 40.540386,157.624146 40.083878,160.619232 
	C37.958332,161.000000 35.916668,161.000000 33.437500,161.000000 
	C32.418587,152.656555 33.265762,144.668488 39.243896,138.162415 
	C40.439293,136.861450 42.169605,136.052002 44.359997,134.522385 
	C44.486996,132.172424 44.486996,132.172424 38.186771,129.624588 
	C46.710789,124.403458 54.971012,120.310379 64.527916,118.518028 
	C64.908707,121.627060 64.894234,124.321632 64.879761,127.016212 
z"/>
<path fill="#414141" opacity="1.000000" stroke="none" 
	d="
M136.971237,126.961731 
	C136.971237,126.961731 136.980820,126.479637 137.366638,126.240005 
	C138.507980,126.004097 139.263519,126.007820 139.982986,126.387543 
	C139.730515,129.184464 138.046005,132.969467 142.317352,132.595032 
	C145.936295,132.277802 149.435883,130.060471 152.879501,128.451157 
	C155.670227,127.146965 158.299240,125.496735 161.000000,123.999992 
	C161.000000,127.362434 161.000000,130.724869 160.693008,134.470367 
	C157.527420,133.263702 155.790100,134.259094 153.797745,136.776245 
	C150.356308,141.124222 146.352554,145.032043 142.525818,149.068710 
	C138.721634,153.081589 134.844910,157.025726 131.000000,161.000000 
	C130.250000,161.000000 129.500000,161.000000 128.305969,160.802734 
	C127.241295,160.736969 126.620651,160.868484 126.000000,161.000000 
	C124.611107,161.000000 123.222221,161.000000 121.542160,160.688736 
	C124.215370,157.817978 127.227943,155.311813 130.132233,152.685883 
	C133.997055,149.191467 137.942871,145.755814 141.459335,141.932068 
	C142.191544,141.135864 141.717651,137.660995 140.919342,137.283875 
	C136.082977,134.999100 135.613602,131.416962 136.971237,126.961731 
z"/>
<path fill="#232323" opacity="1.000000" stroke="none" 
	d="
M54.468636,161.000000 
	C54.005219,159.356201 53.962833,157.710342 54.033607,156.069382 
	C54.075665,155.094269 53.958088,153.578262 54.493172,153.248795 
	C57.125534,151.627838 60.901516,150.991287 62.483120,148.745911 
	C64.729240,145.557129 66.524422,144.314301 70.058838,146.104263 
	C70.426926,146.290665 71.165771,145.745026 72.269745,145.302551 
	C75.868401,145.104156 78.929909,145.142258 81.949066,145.574905 
	C80.604477,150.979630 79.302238,155.989822 78.000000,161.000000 
	C70.312424,161.000000 62.624847,161.000000 54.468636,161.000000 
z"/>
<path fill="#1A1A1A" opacity="1.000000" stroke="none" 
	d="
M52.533138,1.000000 
	C52.859653,4.349609 50.654381,5.487962 47.762405,5.897532 
	C45.138130,6.269189 42.486069,6.516689 39.904049,7.082595 
	C38.713627,7.343503 36.830608,8.078101 36.683483,8.864074 
	C35.851658,13.307856 32.496078,13.756256 29.024044,14.592985 
	C23.270630,15.979506 20.967133,20.844278 18.255688,25.498671 
	C15.671141,29.935240 12.222184,33.861767 9.256866,38.085274 
	C7.284400,40.894657 5.493928,43.831821 3.315449,46.430382 
	C3.005844,44.432552 3.002786,42.716133 2.999864,40.999859 
	C3.000000,41.000000 2.999653,40.999756 3.314539,40.910557 
	C4.751520,39.543652 5.873614,38.265949 7.199806,36.793346 
	C7.933380,36.063892 8.462855,35.529331 9.317547,34.908966 
	C10.756710,33.542206 11.870659,32.261253 12.987276,30.735079 
	C12.989944,30.489855 12.999161,29.999466 13.308302,29.910351 
	C14.746097,26.196720 15.690575,22.500040 17.071953,18.974548 
	C17.910738,16.833838 18.998043,14.414786 20.715685,13.064897 
	C25.784719,9.081156 31.226585,5.572311 36.506508,1.854838 
	C36.750618,1.682964 36.839058,1.289996 37.000000,1.000000 
	C42.022091,1.000000 47.044186,1.000000 52.533138,1.000000 
z"/>
<path fill="#1F1F1F" opacity="1.000000" stroke="none" 
	d="
M36.531731,1.000000 
	C36.839058,1.289996 36.750618,1.682964 36.506508,1.854838 
	C31.226585,5.572311 25.784719,9.081156 20.715685,13.064897 
	C18.998043,14.414786 17.910738,16.833838 17.071953,18.974548 
	C15.690575,22.500040 14.746097,26.196720 13.307316,29.465370 
	C12.393923,25.603466 12.428450,21.817955 11.042437,18.654911 
	C8.793086,13.521626 9.019631,11.578352 13.305538,7.660137 
	C15.263513,5.870139 16.458801,3.245885 18.000000,1.000000 
	C24.021152,1.000000 30.042305,1.000000 36.531731,1.000000 
z"/>
<path fill="#3C3C3C" opacity="1.000000" stroke="none" 
	d="
M140.019043,126.011551 
	C139.263519,126.007820 138.507980,126.004097 137.374603,125.999039 
	C138.104996,124.571159 139.227310,123.155281 140.318787,121.716019 
	C143.473999,117.555489 143.714783,112.293816 140.482895,109.093613 
	C137.623276,106.262001 135.455399,102.800560 137.863434,99.530060 
	C139.236313,97.665466 143.284317,97.770546 146.567841,96.989853 
	C147.007935,96.991005 147.021011,96.980911 147.097656,97.363083 
	C147.695877,99.840340 148.064468,101.990097 148.787506,104.013176 
	C149.362961,105.623352 149.996048,107.801872 151.262177,108.458946 
	C154.302002,110.036476 157.729141,110.867653 161.000000,112.000000 
	C161.000000,114.041664 161.000000,116.083336 160.666840,118.562225 
	C159.889465,118.999336 159.445267,118.999229 159.000519,118.999557 
	C159.000000,119.000000 159.000748,118.998848 158.964905,118.636703 
	C157.836624,113.853310 154.321625,112.056778 150.512466,112.489769 
	C146.811462,112.910484 144.910110,116.080048 145.014557,120.352631 
	C145.002472,121.118988 144.992905,121.556862 144.672501,122.085106 
	C143.571777,123.111099 142.781906,124.046722 141.772736,125.158768 
	C141.041962,125.560646 140.530502,125.786102 140.019043,126.011551 
z"/>
<path fill="#282828" opacity="1.000000" stroke="none" 
	d="
M17.545889,1.000000 
	C16.458801,3.245885 15.263513,5.870139 13.305538,7.660137 
	C9.019631,11.578352 8.793086,13.521626 11.042437,18.654911 
	C12.428450,21.817955 12.393923,25.603466 12.998175,29.554485 
	C12.999161,29.999466 12.989944,30.489855 12.665175,30.826241 
	C11.224381,32.440006 10.108356,33.717392 8.992332,34.994774 
	C8.462855,35.529331 7.933380,36.063892 6.842247,36.832596 
	C5.186945,38.377750 4.093299,39.688751 2.999653,40.999756 
	C2.999653,40.999756 3.000000,41.000000 2.749109,41.123299 
	C1.998812,41.497734 1.499406,41.748867 1.000000,42.000000 
	C1.000000,40.285641 1.000000,38.571285 1.332917,36.339401 
	C3.261871,34.674061 5.201951,33.797394 6.371508,32.313446 
	C8.033134,30.205151 11.403314,28.901970 9.776735,24.914778 
	C8.062559,20.712866 6.362216,16.954556 1.000000,17.000000 
	C1.000000,13.969407 1.000000,10.938814 1.345363,7.373800 
	C3.793817,4.892920 5.896909,2.946460 8.000000,1.000000 
	C11.030593,1.000000 14.061185,1.000000 17.545889,1.000000 
z"/>
<path fill="#373737" opacity="1.000000" stroke="none" 
	d="
M106.444168,161.000000 
	C109.124191,157.282196 112.051567,153.370850 115.446053,149.918823 
	C117.497070,147.833023 120.234741,146.401108 122.731445,144.779404 
	C127.522728,141.667297 131.267212,137.692703 133.765579,132.495819 
	C137.281906,139.977905 137.348007,140.056580 130.954010,145.429169 
	C128.030884,147.885345 124.559586,149.711746 121.755508,152.280670 
	C118.902336,154.894592 116.563858,158.070297 114.000000,161.000000 
	C111.629440,161.000000 109.258888,161.000000 106.444168,161.000000 
z"/>
<path fill="#4F4F4F" opacity="1.000000" stroke="none" 
	d="
M139.982986,126.387543 
	C140.530502,125.786102 141.041962,125.560646 142.087646,125.075256 
	C143.409027,123.875122 144.196182,122.934929 144.983353,121.994736 
	C144.992905,121.556862 145.002472,121.118988 145.316437,120.202911 
	C150.343796,114.100021 150.332932,114.116737 156.673691,118.240189 
	C157.334412,118.669868 158.219666,118.754250 159.000748,118.998848 
	C159.000748,118.998848 159.000000,119.000000 159.110626,119.276047 
	C159.814178,120.034729 160.407089,120.517365 161.000000,121.000000 
	C161.000000,121.750000 161.000000,122.500000 161.000000,123.624992 
	C158.299240,125.496735 155.670227,127.146965 152.879501,128.451157 
	C149.435883,130.060471 145.936295,132.277802 142.317352,132.595032 
	C138.046005,132.969467 139.730515,129.184464 139.982986,126.387543 
z"/>
<path fill="#3C3C3C" opacity="1.000000" stroke="none" 
	d="
M114.437500,161.000000 
	C116.563858,158.070297 118.902336,154.894592 121.755508,152.280670 
	C124.559586,149.711746 128.030884,147.885345 130.954010,145.429169 
	C137.348007,140.056580 137.281906,139.977905 134.066589,132.335602 
	C133.983185,131.240723 133.984787,130.493500 134.162827,129.150146 
	C134.557388,128.034561 134.775528,127.515091 134.993668,126.995605 
	C135.433380,126.989479 135.873093,126.983353 136.642029,126.969475 
	C135.613602,131.416962 136.082977,134.999100 140.919342,137.283875 
	C141.717651,137.660995 142.191544,141.135864 141.459335,141.932068 
	C137.942871,145.755814 133.997055,149.191467 130.132233,152.685883 
	C127.227943,155.311813 124.215370,157.817978 121.125504,160.688736 
	C118.958336,161.000000 116.916664,161.000000 114.437500,161.000000 
z"/>
<path fill="#4A4A4A" opacity="1.000000" stroke="none" 
	d="
M131.444183,161.000000 
	C134.844910,157.025726 138.721634,153.081589 142.525818,149.068710 
	C146.352554,145.032043 150.356308,141.124222 153.797745,136.776245 
	C155.790100,134.259094 157.527420,133.263702 160.693008,134.926712 
	C161.000000,136.388885 161.000000,137.777786 160.617966,139.614136 
	C157.334366,140.504211 154.641281,141.174347 154.560181,145.151581 
	C152.544891,147.024002 150.785110,148.722076 149.085129,150.478043 
	C145.705994,153.968475 142.359802,157.490829 139.000000,161.000000 
	C136.629440,161.000000 134.258896,161.000000 131.444183,161.000000 
z"/>
<path fill="#5F5F5F" opacity="1.000000" stroke="none" 
	d="
M154.842712,145.003403 
	C154.641281,141.174347 157.334366,140.504211 160.617966,140.030807 
	C161.000000,146.901276 161.000000,153.802551 161.000000,161.000000 
	C157.324615,161.000000 153.641479,161.000000 149.565704,160.667953 
	C150.501266,158.665588 151.687454,156.853088 153.187363,155.354614 
	C156.297089,152.247849 156.929855,148.876328 154.842712,145.003403 
z"/>
<path fill="#282828" opacity="1.000000" stroke="none" 
	d="
M78.444168,161.000000 
	C79.302238,155.989822 80.604477,150.979630 82.374710,145.509827 
	C85.560577,144.745255 88.278442,144.440308 90.996307,144.135345 
	C89.387840,149.498917 87.779366,154.862503 86.085449,160.613037 
	C83.629440,161.000000 81.258888,161.000000 78.444168,161.000000 
z"/>
<path fill="#4F4F4F" opacity="1.000000" stroke="none" 
	d="
M154.560181,145.151581 
	C156.929855,148.876328 156.297089,152.247849 153.187363,155.354614 
	C151.687454,156.853088 150.501266,158.665588 149.086517,160.667953 
	C145.969406,161.000000 142.938812,161.000000 139.454102,161.000000 
	C142.359802,157.490829 145.705994,153.968475 149.085129,150.478043 
	C150.785110,148.722076 152.544891,147.024002 154.560181,145.151581 
z"/>
<path fill="#282828" opacity="1.000000" stroke="none" 
	d="
M147.013046,96.983612 
	C146.764465,96.173065 146.510773,95.369911 146.130341,94.275475 
	C147.451416,94.031998 149.529419,93.484062 150.236526,94.232071 
	C153.105621,97.267159 156.249649,98.332687 160.601715,97.012650 
	C161.000000,100.030594 161.000000,103.061188 160.632935,106.466034 
	C155.590561,106.206131 152.114044,104.077438 150.212402,99.493317 
	C149.759811,98.402306 148.116592,97.805199 147.021011,96.980911 
	C147.021011,96.980911 147.007935,96.991005 147.013046,96.983612 
z"/>
<path fill="#373737" opacity="1.000000" stroke="none" 
	d="
M1.000000,17.399996 
	C6.362216,16.954556 8.062559,20.712866 9.776735,24.914778 
	C11.403314,28.901970 8.033134,30.205151 6.371508,32.313446 
	C5.201951,33.797394 3.261871,34.674061 1.332917,35.910942 
	C1.000000,35.250000 1.000000,34.500000 1.314508,33.242722 
	C7.795344,27.129827 7.603292,23.546753 1.000000,21.000000 
	C1.000000,19.933331 1.000000,18.866661 1.000000,17.399996 
z"/>
<path fill="#333333" opacity="1.000000" stroke="none" 
	d="
M147.097656,97.363083 
	C148.116592,97.805199 149.759811,98.402306 150.212402,99.493317 
	C152.114044,104.077438 155.590561,106.206131 160.632935,106.920143 
	C161.000000,108.388893 161.000000,109.777779 161.000000,111.583336 
	C157.729141,110.867653 154.302002,110.036476 151.262177,108.458946 
	C149.996048,107.801872 149.362961,105.623352 148.787506,104.013176 
	C148.064468,101.990097 147.695877,99.840340 147.097656,97.363083 
z"/>
<path fill="#4A4A4A" opacity="1.000000" stroke="none" 
	d="
M1.000000,21.460636 
	C7.603292,23.546753 7.795344,27.129827 1.314508,32.867722 
	C1.000000,29.307091 1.000000,25.614182 1.000000,21.460636 
z"/>
<path fill="#2B2B2B" opacity="1.000000" stroke="none" 
	d="
M7.502095,1.000000 
	C5.896909,2.946460 3.793817,4.892920 1.345363,6.919690 
	C1.000000,5.079329 1.000000,3.158659 1.000000,1.000000 
	C2.998669,1.000000 5.001430,1.000000 7.502095,1.000000 
z"/>
<path fill="#1F1F1F" opacity="1.000000" stroke="none" 
	d="
M1.000000,42.444164 
	C1.499406,41.748867 1.998812,41.497734 2.748973,41.123161 
	C3.002786,42.716133 3.005844,44.432552 3.012503,46.578331 
	C3.013594,47.756798 3.011084,48.505905 2.673825,49.628567 
	C1.892717,50.001419 1.446359,50.000710 1.000000,50.000000 
	C1.000000,47.629444 1.000000,45.258884 1.000000,42.444164 
z"/>
<path fill="#1A1A1A" opacity="1.000000" stroke="none" 
	d="
M1.000000,50.375000 
	C1.446359,50.000710 1.892717,50.001419 2.673993,50.003246 
	C2.528042,50.954132 2.047176,51.903893 1.283155,52.926826 
	C1.000000,52.250000 1.000000,51.500000 1.000000,50.375000 
z"/>
<path fill="#414141" opacity="1.000000" stroke="none" 
	d="
M161.000000,120.666672 
	C160.407089,120.517365 159.814178,120.034729 159.111160,119.275604 
	C159.445267,118.999229 159.889465,118.999336 160.666840,118.999725 
	C161.000000,119.444443 161.000000,119.888893 161.000000,120.666672 
z"/>
<path fill="#4A4A4A" opacity="1.000000" stroke="none" 
	d="
M126.333328,161.000000 
	C126.620651,160.868484 127.241295,160.736969 127.930969,160.802734 
	C127.555557,161.000000 127.111107,161.000000 126.333328,161.000000 
z"/>
<path fill="#1D1D1D" opacity="1.000000" stroke="none" 
	d="
M73.581726,56.973999 
	C74.597229,57.451015 75.189980,57.935928 75.634331,58.765427 
	C75.354111,61.018250 75.222282,62.926487 75.016228,65.191078 
	C74.029625,68.394508 72.447937,67.860214 70.354523,66.720139 
	C68.134552,65.511147 65.628677,64.840050 63.334820,63.750542 
	C60.421146,62.366642 57.292332,61.180302 54.808308,59.212086 
	C51.728935,56.772156 49.238365,55.081951 46.328701,59.191967 
	C45.782055,59.964134 44.783554,60.416416 43.734962,60.828667 
	C42.637283,59.750893 41.798210,58.860764 40.959137,57.970634 
	C40.959137,57.970634 41.021999,57.980320 41.000942,57.767441 
	C40.979885,57.554565 40.896805,57.071003 40.913086,56.808281 
	C40.889900,56.199986 40.850433,55.854412 40.810966,55.508839 
	C42.913853,52.031315 42.214821,49.181950 39.499611,46.162544 
	C37.698254,44.159363 36.809200,41.335785 35.531830,38.917450 
	C41.647186,34.899487 53.269588,36.491310 57.073963,41.783653 
	C58.909451,44.337040 60.751972,46.973835 62.020569,49.826660 
	C64.226540,54.787449 67.449005,57.698246 73.581726,56.973999 
z"/>
<path fill="#888888" opacity="1.000000" stroke="none" 
	d="
M65.941734,113.017159 
	C65.990059,111.940063 66.038376,110.862968 66.077065,108.932556 
	C66.096970,104.730255 66.126511,101.381279 66.156044,98.032295 
	C66.156044,98.032295 66.539841,97.981384 66.952995,98.168869 
	C67.900841,99.579857 68.435532,100.803375 68.952209,102.443726 
	C69.071014,105.581390 68.133560,108.928818 72.636658,109.585648 
	C72.742165,115.000954 72.801804,119.960258 72.565735,125.184174 
	C72.125351,127.308113 71.980682,129.167435 71.491287,130.950119 
	C69.494400,128.924652 67.842224,126.975822 66.120392,124.569466 
	C66.014412,120.413681 65.978073,116.715416 65.941734,113.017159 
z"/>
<path fill="#181818" opacity="1.000000" stroke="none" 
	d="
M50.033360,99.137100 
	C48.664814,98.198006 46.884052,97.447601 46.814522,96.562744 
	C46.675125,94.788788 47.132893,92.723885 48.079388,91.251816 
	C48.377663,90.787918 51.078110,91.682320 52.564209,92.253876 
	C53.220898,92.506424 53.769356,93.435028 54.053928,94.176804 
	C54.614319,95.637535 54.956120,97.182114 55.388340,98.692009 
	C53.723957,98.882996 52.059574,99.073982 50.033360,99.137100 
z"/>
<path fill="#4F4F4F" opacity="1.000000" stroke="none" 
	d="
M40.570793,55.246830 
	C40.850433,55.854412 40.889900,56.199986 40.738945,56.957554 
	C40.333385,57.588432 40.134884,57.821484 39.953014,58.068695 
	C38.362640,57.517178 36.772270,56.965660 35.181896,56.414143 
	C34.863140,56.858147 34.544384,57.302151 34.225632,57.746155 
	C33.021641,55.463619 29.395975,53.643482 33.323017,50.347935 
	C33.669365,50.057281 33.046707,48.611942 33.158470,47.339790 
	C33.719288,46.941399 33.995754,46.906128 34.272224,46.870861 
	C36.291691,49.575512 38.311157,52.280167 40.570793,55.246830 
z"/>
<path fill="#6F6F6F" opacity="1.000000" stroke="none" 
	d="
M66.955925,97.242889 
	C66.054703,96.678673 64.839775,96.323097 64.303207,95.516357 
	C60.839832,90.309074 57.524601,85.003250 54.450371,79.401001 
	C56.064449,80.279160 57.388939,81.486076 58.847816,82.962776 
	C60.636017,85.534874 62.289825,87.837196 64.043236,90.444077 
	C65.122414,92.150055 66.101982,93.551483 67.073761,95.335205 
	C67.029289,96.225960 66.992607,96.734428 66.955925,97.242889 
z"/>
<path fill="#333333" opacity="1.000000" stroke="none" 
	d="
M58.713428,82.693001 
	C57.388939,81.486076 56.064449,80.279160 54.394691,79.061951 
	C53.429199,78.241066 52.808979,77.430466 52.450729,76.266357 
	C54.135674,74.948898 55.558647,73.984955 57.248009,73.222763 
	C59.022358,75.935905 60.530312,78.447289 61.659554,81.021622 
	C60.425041,81.620705 59.569233,82.156853 58.713428,82.693001 
z"/>
<path fill="#4F4F4F" opacity="1.000000" stroke="none" 
	d="
M66.921921,97.396362 
	C66.992607,96.734428 67.029289,96.225960 67.389465,95.201546 
	C68.836632,94.442947 69.960304,94.200302 71.323959,94.251221 
	C71.959541,97.739220 72.355141,100.933662 72.462631,104.021011 
	C71.106415,103.284904 70.038322,102.655899 68.970222,102.026886 
	C68.435532,100.803375 67.900841,99.579857 67.137390,98.109940 
	C66.908623,97.863525 66.887917,97.549828 66.921921,97.396362 
z"/>
<path fill="#B2B2B2" opacity="1.000000" stroke="none" 
	d="
M81.869438,14.922314 
	C81.161369,13.047391 81.075760,10.629776 83.430916,12.187142 
	C85.609482,13.627738 86.701279,16.711826 88.129265,19.339745 
	C86.031929,18.105108 84.077003,16.602859 81.869438,14.922314 
z"/>
<path fill="#2B2B2B" opacity="1.000000" stroke="none" 
	d="
M56.981621,73.021004 
	C55.558647,73.984955 54.135674,74.948898 52.388077,75.963463 
	C51.406288,74.720528 50.749130,73.426979 50.023964,71.564156 
	C49.933529,70.394508 49.911106,69.794136 50.122715,68.987633 
	C50.911182,68.511345 51.465618,68.241188 52.328003,68.043068 
	C53.422043,68.421463 54.208138,68.727829 55.135452,69.318787 
	C55.844990,70.742584 56.413303,71.881798 56.981621,73.021004 
z"/>
<path fill="#4A4A4A" opacity="1.000000" stroke="none" 
	d="
M34.140411,46.538101 
	C33.995754,46.906128 33.719288,46.941399 33.025986,47.027466 
	C31.013000,44.579330 29.149485,42.207100 27.889721,39.548756 
	C26.382538,36.368313 27.743113,34.022278 31.171892,32.569035 
	C27.508959,38.237228 31.792198,41.987438 34.140411,46.538101 
z"/>
<path fill="#3C3C3C" opacity="1.000000" stroke="none" 
	d="
M62.006428,37.996277 
	C65.278481,42.791599 68.550537,47.586918 71.991417,52.691772 
	C71.036919,52.473183 69.452499,52.249321 68.868980,51.365005 
	C66.142876,47.233612 63.692886,42.920021 61.308365,38.336136 
	C61.650501,37.999237 61.828465,37.997757 62.006428,37.996277 
z"/>
<path fill="#5F5F5F" opacity="1.000000" stroke="none" 
	d="
M49.888683,69.193764 
	C49.911106,69.794136 49.933529,70.394508 49.937931,71.293503 
	C46.861858,67.294724 43.803802,62.997334 40.852444,58.335289 
	C41.798210,58.860764 42.637283,59.750893 43.915596,61.107300 
	C46.199451,64.113640 48.044067,66.653702 49.888683,69.193764 
z"/>
<path fill="#333333" opacity="1.000000" stroke="none" 
	d="
M49.560722,30.801525 
	C52.926220,31.614084 55.845169,32.470234 58.892136,33.670551 
	C53.591724,33.589264 48.163300,33.163803 42.292084,32.411995 
	C41.878353,31.751770 41.907402,31.417887 41.936451,31.084003 
	C44.329025,31.004374 46.721603,30.924744 49.560722,30.801525 
z"/>
<path fill="#4A4A4A" opacity="1.000000" stroke="none" 
	d="
M41.523232,31.069462 
	C41.907402,31.417887 41.878353,31.751770 41.819069,32.331665 
	C39.628429,32.577679 37.468025,32.577679 35.307625,32.577679 
	C35.293560,32.070091 35.279495,31.562504 35.265430,31.054916 
	C37.213627,31.054916 39.161819,31.054916 41.523232,31.069462 
z"/>
<path fill="#181818" opacity="1.000000" stroke="none" 
	d="
M60.526375,16.484993 
	C60.573021,17.259314 60.363850,17.934410 60.154678,18.609505 
	C59.677891,18.296310 59.201103,17.983116 58.724316,17.669922 
	C59.239731,17.241873 59.755150,16.813822 60.526375,16.484993 
z"/>
<path fill="#0E0E0E" opacity="1.000000" stroke="none" 
	d="
M65.943039,98.314636 
	C66.126511,101.381279 66.096970,104.730255 66.011009,108.532700 
	C65.619431,106.937790 65.284279,104.889420 64.935776,102.434082 
	C65.191643,100.883743 65.460838,99.740356 65.943039,98.314636 
z"/>
<path fill="#181818" opacity="1.000000" stroke="none" 
	d="
M29.335289,131.371979 
	C29.374331,132.043930 29.175465,132.645981 28.976597,133.248016 
	C28.544186,133.101105 28.111774,132.954178 27.679363,132.807266 
	C28.152035,132.305527 28.624708,131.803787 29.335289,131.371979 
z"/>
<path fill="#333333" opacity="1.000000" stroke="none" 
	d="
M61.926460,37.681599 
	C61.828465,37.997757 61.650501,37.999237 61.205078,38.000469 
	C60.290348,36.884308 59.643066,35.768398 58.992287,34.314713 
	C59.941353,35.106930 60.893921,36.236927 61.926460,37.681599 
z"/>
<path fill="#181818" opacity="1.000000" stroke="none" 
	d="
M28.662384,50.478111 
	C28.374550,50.213764 28.255169,49.905067 28.135786,49.596367 
	C28.273741,49.559128 28.527878,49.478340 28.532635,49.491028 
	C28.648159,49.799225 28.737106,50.117390 28.662384,50.478111 
z"/>
<path fill="#5F5F5F" opacity="1.000000" stroke="none" 
	d="
M40.221924,58.182125 
	C40.134884,57.821484 40.333385,57.588432 40.722664,57.220276 
	C40.896805,57.071003 40.979885,57.554565 40.998657,57.799164 
	C40.841892,58.127693 40.666359,58.211624 40.221924,58.182125 
z"/>
<path fill="#1A1A1A" opacity="1.000000" stroke="none" 
	d="
M21.379562,59.265369 
	C23.154161,59.301479 24.594976,59.238529 25.941837,59.179680 
	C26.590845,61.351406 27.141535,63.588844 27.929377,65.739403 
	C29.160830,69.100868 30.823620,71.430412 35.289288,70.568321 
	C37.051220,70.228172 39.771946,71.766869 41.047707,73.292992 
	C41.689812,74.061104 40.401756,77.995308 39.415211,78.245560 
	C37.428604,78.749489 34.615582,78.334511 32.937824,77.162033 
	C30.496540,75.455994 28.917645,75.291122 26.306974,76.863426 
	C20.117292,80.591202 17.009268,80.126663 13.144460,75.754341 
	C9.165101,71.252426 9.214508,66.667267 12.816167,61.196751 
	C15.076464,57.763607 17.818367,57.868393 21.379562,59.265369 
M22.788862,76.021759 
	C23.464909,73.093193 25.251741,69.806282 24.459766,67.351295 
	C23.844395,65.443756 19.893829,63.403912 17.649992,63.631809 
	C16.006493,63.798729 13.786691,67.434807 13.507439,69.729553 
	C13.097185,73.100800 18.247229,76.570961 22.788862,76.021759 
z"/>
<path fill="#1F1F1F" opacity="1.000000" stroke="none" 
	d="
M119.015015,66.648041 
	C117.534958,68.568275 116.073700,70.136375 114.034958,71.657227 
	C110.198517,69.963394 107.615204,70.142250 106.105301,74.038002 
	C105.792892,74.844032 104.729950,75.359169 103.668289,76.085281 
	C101.778160,76.675392 100.232666,77.188599 98.687172,77.701797 
	C98.802162,77.220657 98.917152,76.739510 99.032143,76.258362 
	C96.756096,75.400681 92.977966,73.282104 92.459480,73.899773 
	C89.984238,76.848488 88.125099,75.122978 86.077301,73.672379 
	C86.976753,71.210442 88.868462,68.779121 84.752953,67.640823 
	C84.520874,66.482674 84.246773,65.664322 83.972679,64.845970 
	C85.414162,63.245548 86.855637,61.645126 88.950081,60.194695 
	C93.987114,61.814152 98.398727,63.207073 102.748405,64.772141 
	C108.405411,66.807602 113.463326,65.935013 118.273392,62.073647 
	C119.031090,62.431484 119.515388,62.715675 119.999695,62.999866 
	C119.677727,64.098541 119.355766,65.197220 119.015015,66.648041 
z"/>
<path fill="#141414" opacity="1.000000" stroke="none" 
	d="
M95.999084,54.994164 
	C99.139626,50.786205 102.160324,46.480896 105.468109,42.408791 
	C107.293121,40.162083 109.649529,38.953560 112.078873,41.907665 
	C112.393913,42.290760 112.569305,42.812050 112.932022,43.128983 
	C116.514511,46.259262 121.461792,47.930126 123.665359,52.942772 
	C123.496414,54.821384 122.992210,56.646736 122.003723,58.519997 
	C119.678673,58.375778 117.837906,58.183643 115.636833,57.957718 
	C114.361465,57.569530 113.231674,57.444775 112.566689,56.822952 
	C108.655098,53.165279 104.671112,51.464710 99.739502,55.176151 
	C98.972672,55.753258 97.269348,55.085995 95.999084,54.994164 
z"/>
<path fill="#181818" opacity="1.000000" stroke="none" 
	d="
M115.997147,57.991508 
	C117.837906,58.183643 119.678673,58.375778 121.776855,58.791794 
	C121.556244,60.239498 121.078194,61.463322 120.299919,62.843506 
	C119.515388,62.715675 119.031090,62.431484 118.194992,61.761520 
	C117.227852,60.247669 116.612503,59.119587 115.997147,57.991508 
z"/>
<path fill="#1A1A1A" opacity="1.000000" stroke="none" 
	d="
M115.636833,57.957718 
	C116.612503,59.119587 117.227852,60.247669 117.921600,61.687874 
	C113.463326,65.935013 108.405411,66.807602 102.748405,64.772141 
	C98.398727,63.207073 93.987114,61.814152 89.286522,60.144203 
	C89.047844,58.821007 89.125687,57.698284 89.191032,56.755894 
	C91.394585,56.225201 93.414154,55.738819 95.716400,55.123299 
	C97.269348,55.085995 98.972672,55.753258 99.739502,55.176151 
	C104.671112,51.464710 108.655098,53.165279 112.566689,56.822952 
	C113.231674,57.444775 114.361465,57.569530 115.636833,57.957718 
z"/>
<path fill="#4F4F4F" opacity="1.000000" stroke="none" 
	d="
M83.742538,65.059814 
	C84.246773,65.664322 84.520874,66.482674 84.528946,67.822159 
	C82.274971,71.360771 80.635406,70.220238 78.872147,67.686157 
	C77.463799,66.586327 76.277122,65.710526 75.090454,64.834724 
	C75.222282,62.926487 75.354111,61.018250 75.746971,59.039200 
	C77.485695,61.116219 78.836517,63.373798 80.531723,65.333473 
	C80.947113,65.813675 82.488617,65.319733 83.742538,65.059814 
z"/>
<path fill="#1F1F1F" opacity="1.000000" stroke="none" 
	d="
M142.845886,88.694519 
	C136.861206,90.719368 130.484131,91.905907 124.696373,94.438965 
	C122.481964,95.408112 121.233154,99.317329 120.209694,102.128960 
	C117.678413,109.082855 107.397545,116.827415 99.477364,117.023094 
	C99.061996,113.651497 99.061996,110.271454 99.061996,106.891418 
	C99.537209,106.786156 100.012428,106.680885 100.487640,106.575623 
	C101.445152,107.710312 102.402664,108.844994 102.935150,109.476021 
	C105.863075,107.543045 108.931664,105.978157 111.433098,103.770607 
	C116.775291,99.056038 120.663765,93.391640 120.994011,85.914497 
	C121.067177,84.258003 120.523834,82.214577 121.299934,81.024879 
	C122.842529,78.660210 124.790901,76.067139 127.206863,74.979324 
	C128.365189,74.457787 131.508362,76.746277 132.811905,78.472496 
	C135.676987,82.266571 137.865189,86.589119 142.845886,88.694519 
z"/>
<path fill="#282828" opacity="1.000000" stroke="none" 
	d="
M139.701370,93.810760 
	C135.451065,95.862015 133.077347,99.030510 133.989380,104.568253 
	C133.801056,106.689117 133.012360,108.603294 133.539108,110.032745 
	C135.356918,114.965790 134.628159,118.292351 129.630005,121.059891 
	C121.284050,125.681114 113.280960,130.926147 105.189522,135.997879 
	C103.842606,136.842133 102.876434,138.280716 101.556335,139.184738 
	C100.375137,139.993637 98.948349,140.443909 97.319504,140.710968 
	C97.302635,139.584854 97.596184,138.800186 97.889725,138.015518 
	C98.275864,134.981964 98.662003,131.948410 99.059586,128.472961 
	C109.254662,126.851074 116.683403,120.011223 125.133415,115.288857 
	C129.085785,113.080040 129.357742,109.366806 128.806946,105.309570 
	C127.916779,98.752426 132.486481,93.823532 139.701370,93.810760 
z"/>
<path fill="#5F5F5F" opacity="1.000000" stroke="none" 
	d="
M97.838837,97.959610 
	C97.824631,101.741127 97.810417,105.522652 97.456146,109.682571 
	C96.712936,109.777191 96.309792,109.493416 95.923172,108.814102 
	C96.128082,105.030220 95.140137,102.922081 91.129890,103.621750 
	C91.328629,100.752197 91.579224,98.307579 92.177605,95.958977 
	C93.670906,96.356873 94.816414,96.658760 96.166817,97.136147 
	C96.860756,97.527634 97.349792,97.743622 97.838837,97.959610 
z"/>
<path fill="#B2B2B2" opacity="1.000000" stroke="none" 
	d="
M97.820389,137.550568 
	C97.596184,138.800186 97.302635,139.584854 96.990311,140.684967 
	C95.559601,141.979797 94.147675,142.959198 92.497696,143.565826 
	C95.339058,140.373123 96.476868,136.923859 95.676262,132.381805 
	C95.701103,127.895477 95.668800,123.855186 95.675690,119.501617 
	C95.763023,118.769608 95.811188,118.350883 96.095314,118.001038 
	C96.645401,118.182938 96.968643,118.223869 97.301010,118.192703 
	C97.451019,124.490334 97.601036,130.787964 97.820389,137.550568 
z"/>
<path fill="#6F6F6F" opacity="1.000000" stroke="none" 
	d="
M97.976425,97.706131 
	C97.349792,97.743622 96.860756,97.527634 96.337982,96.852364 
	C97.582214,94.309166 98.860168,92.225250 100.352692,89.909088 
	C101.375443,88.450027 102.183624,87.223198 103.212372,85.831062 
	C103.936821,85.461906 104.440704,85.258064 104.944595,85.054214 
	C103.039627,88.485695 101.134659,91.917175 99.139816,95.673676 
	C98.737968,96.483360 98.425987,96.968002 97.976425,97.706131 
z"/>
<path fill="#888888" opacity="1.000000" stroke="none" 
	d="
M97.455399,117.766357 
	C96.968643,118.223869 96.645401,118.182938 95.908897,117.673996 
	C95.626556,114.588593 95.766602,111.899109 95.906647,109.209633 
	C96.309792,109.493416 96.712936,109.777191 97.360359,110.111458 
	C97.606354,112.554634 97.608063,114.947327 97.455399,117.766357 
z"/>
<path fill="#0E0E0E" opacity="1.000000" stroke="none" 
	d="
M65.751389,113.330963 
	C65.978073,116.715416 66.014412,120.413681 66.068314,125.025665 
	C66.028435,129.621628 65.970970,133.303848 65.913513,136.986069 
	C65.583351,133.956528 65.253197,130.926987 64.901398,127.456825 
	C64.894234,124.321632 64.908707,121.627060 64.904831,118.486641 
	C65.111336,116.575455 65.336189,115.110107 65.751389,113.330963 
z"/>
<path fill="#989898" opacity="1.000000" stroke="none" 
	d="
M65.980591,137.177963 
	C65.970970,133.303848 66.028435,129.621628 66.137970,125.483200 
	C67.842224,126.975822 69.494400,128.924652 71.543320,131.374512 
	C72.913719,133.801285 69.950592,137.058075 74.330170,138.005676 
	C75.119553,138.015488 75.571396,137.966019 76.259567,137.954926 
	C76.495903,137.993271 76.961838,137.882843 77.425713,137.949371 
	C82.146858,138.015884 86.404129,138.015884 90.769600,138.015884 
	C90.937782,135.640717 91.065224,133.840881 91.512619,132.118805 
	C93.094757,132.406998 94.356941,132.617416 95.619125,132.827835 
	C96.476868,136.923859 95.339058,140.373123 92.150856,143.510239 
	C91.867241,143.876968 91.692429,143.926529 91.256966,144.055725 
	C88.278442,144.440308 85.560577,144.745255 82.417068,145.115295 
	C78.929909,145.142258 75.868401,145.104156 72.399094,145.047668 
	C70.326599,143.245438 68.661896,141.461624 66.931297,139.064117 
	C66.600502,138.225555 66.335609,138.000656 66.070717,137.775757 
	C66.070717,137.775757 66.047668,137.369858 65.980591,137.177963 
z"/>
<path fill="#373737" opacity="1.000000" stroke="none" 
	d="
M105.139870,84.844627 
	C104.440704,85.258064 103.936821,85.461906 102.872101,85.759445 
	C101.185783,85.551575 100.060295,85.250015 99.036072,84.623970 
	C100.780754,81.889839 102.424164,79.480202 104.427101,77.064148 
	C107.708893,76.775955 109.016754,77.827118 107.925369,80.859238 
	C107.061958,82.117836 106.198555,83.376434 105.139870,84.844627 
z"/>
<path fill="#2B2B2B" opacity="1.000000" stroke="none" 
	d="
M108.226982,80.763382 
	C109.016754,77.827118 107.708893,76.775955 104.410080,76.798386 
	C104.026657,76.362152 104.019791,76.185257 104.012924,76.008369 
	C104.729950,75.359169 105.792892,74.844032 106.105301,74.038002 
	C107.615204,70.142250 110.198517,69.963394 113.741051,71.808899 
	C112.192619,74.894379 110.360603,77.780945 108.226982,80.763382 
z"/>
<path fill="#373737" opacity="1.000000" stroke="none" 
	d="
M134.770020,127.073746 
	C134.775528,127.515091 134.557388,128.034561 134.163025,128.776337 
	C134.173309,128.383057 134.359833,127.767471 134.770020,127.073746 
z"/>
<path fill="#0E0E0E" opacity="1.000000" stroke="none" 
	d="
M66.031845,138.070099 
	C66.335609,138.000656 66.600502,138.225555 66.817780,138.710510 
	C66.770164,138.970566 66.397011,138.999100 66.190002,138.995880 
	C65.982994,138.992645 65.938126,138.955673 65.938126,138.955673 
	C65.956406,138.758606 65.974686,138.561523 66.031845,138.070099 
z"/>
<path fill="#0E0E0E" opacity="1.000000" stroke="none" 
	d="
M66.003677,139.013092 
	C66.024353,139.033524 65.844070,139.026978 65.891098,138.991333 
	C65.938126,138.955673 65.982994,138.992645 66.003677,139.013092 
z"/>
<path fill="#1F1F1F" opacity="1.000000" stroke="none" 
	d="
M3.314539,40.910557 
	C4.093299,39.688751 5.186945,38.377750 6.638149,37.027496 
	C5.873614,38.265949 4.751520,39.543652 3.314539,40.910557 
z"/>
<path fill="#1F1F1F" opacity="1.000000" stroke="none" 
	d="
M9.317547,34.908966 
	C10.108356,33.717392 11.224381,32.440006 12.662507,31.071465 
	C11.870659,32.261253 10.756710,33.542206 9.317547,34.908966 
z"/>
<path fill="#414141" opacity="1.000000" stroke="none" 
	d="
M158.964905,118.636703 
	C158.219666,118.754250 157.334412,118.669868 156.673691,118.240189 
	C150.332932,114.116737 150.343796,114.100021 145.318970,119.874435 
	C144.910110,116.080048 146.811462,112.910484 150.512466,112.489769 
	C154.321625,112.056778 157.836624,113.853310 158.964905,118.636703 
z"/>
<path fill="#414141" opacity="1.000000" stroke="none" 
	d="
M144.672501,122.085106 
	C144.196182,122.934929 143.409027,123.875122 142.306961,124.898834 
	C142.781906,124.046722 143.571777,123.111099 144.672501,122.085106 
z"/>
<path fill="#232323" opacity="1.000000" stroke="none" 
	d="
M103.668289,76.085281 
	C104.019791,76.185257 104.026657,76.362152 104.050552,76.804810 
	C102.424164,79.480202 100.780754,81.889839 98.776848,84.817078 
	C97.649513,86.579895 96.882668,87.825119 95.883888,89.291000 
	C94.480888,90.805016 93.309822,92.098389 91.892693,93.180405 
	C89.744194,94.058769 87.509544,94.813164 86.004539,96.304077 
	C82.201805,100.071213 79.158409,104.806442 72.926422,104.785065 
	C72.854362,104.569916 72.750740,104.128105 72.750740,104.128105 
	C72.355141,100.933662 71.959541,97.739220 71.184311,93.944229 
	C69.221947,91.210258 67.639221,89.076843 65.911789,86.642456 
	C64.524139,84.547211 63.281204,82.752945 62.038269,80.958679 
	C60.530312,78.447289 59.022358,75.935905 57.248009,73.222763 
	C56.413303,71.881798 55.844990,70.742584 55.208443,68.971100 
	C56.154552,65.401093 55.236687,63.861496 51.936947,63.809196 
	C51.554108,63.469315 51.234665,63.319775 50.915222,63.170238 
	C51.276661,63.446930 51.638100,63.723618 52.000980,64.397881 
	C52.008297,65.853981 52.014172,66.912506 52.020050,67.971039 
	C51.465618,68.241188 50.911182,68.511345 50.122715,68.987633 
	C48.044067,66.653702 46.199451,64.113640 44.174202,61.294945 
	C44.783554,60.416416 45.782055,59.964134 46.328701,59.191967 
	C49.238365,55.081951 51.728935,56.772156 54.808308,59.212086 
	C57.292332,61.180302 60.421146,62.366642 63.334820,63.750542 
	C65.628677,64.840050 68.134552,65.511147 70.354523,66.720139 
	C72.447937,67.860214 74.029625,68.394508 75.016228,65.191078 
	C76.277122,65.710526 77.463799,66.586327 78.681770,67.980309 
	C75.608719,73.027130 78.945847,75.430130 81.738632,78.636871 
	C83.399345,76.824654 84.696655,75.408981 85.993973,73.993309 
	C88.125099,75.122978 89.984238,76.848488 92.459480,73.899773 
	C92.977966,73.282104 96.756096,75.400681 99.032143,76.258362 
	C98.917152,76.739510 98.802162,77.220657 98.687172,77.701797 
	C100.232666,77.188599 101.778160,76.675392 103.668289,76.085281 
z"/>
<path fill="#2B2B2B" opacity="1.000000" stroke="none" 
	d="
M72.998489,105.000221 
	C79.158409,104.806442 82.201805,100.071213 86.004539,96.304077 
	C87.509544,94.813164 89.744194,94.058769 91.869324,93.484924 
	C92.004616,94.621536 91.917213,95.242249 91.829811,95.862961 
	C91.579224,98.307579 91.328629,100.752197 91.095825,104.084549 
	C91.120949,109.998062 91.128288,115.023834 91.102234,120.506653 
	C91.110123,124.656143 91.151398,128.348587 91.192665,132.041046 
	C91.065224,133.840881 90.937782,135.640717 90.769600,138.015884 
	C86.404129,138.015884 82.146858,138.015884 77.309387,137.906647 
	C76.482101,137.740234 76.246788,137.779953 76.023239,137.916565 
	C75.571396,137.966019 75.119553,138.015488 74.334473,137.548340 
	C73.621300,132.994339 73.241371,128.956940 72.861450,124.919556 
	C72.801804,119.960258 72.742165,115.000954 72.715134,109.177612 
	C72.831322,107.209122 72.914909,106.104675 72.998489,105.000221 
z"/>
<path fill="#1F1F1F" opacity="1.000000" stroke="none" 
	d="
M72.565735,125.184174 
	C73.241371,128.956940 73.621300,132.994339 73.996933,137.489075 
	C69.950592,137.058075 72.913719,133.801285 71.888039,131.451141 
	C71.980682,129.167435 72.125351,127.308113 72.565735,125.184174 
z"/>
<path fill="#6F6F6F" opacity="1.000000" stroke="none" 
	d="
M72.926422,104.785065 
	C72.914909,106.104675 72.831322,107.209122 72.669266,108.721611 
	C68.133560,108.928818 69.071014,105.581390 68.952209,102.443726 
	C70.038322,102.655899 71.106415,103.284904 72.462631,104.021011 
	C72.750740,104.128105 72.854362,104.569916 72.926422,104.785065 
z"/>
<path fill="#414141" opacity="1.000000" stroke="none" 
	d="
M61.659557,81.021622 
	C63.281204,82.752945 64.524139,84.547211 65.690895,86.874763 
	C65.057693,88.318535 64.500664,89.229027 63.943634,90.139511 
	C62.289825,87.837196 60.636017,85.534874 58.847816,82.962776 
	C59.569233,82.156853 60.425041,81.620705 61.659557,81.021622 
z"/>
<path fill="#4A4A4A" opacity="1.000000" stroke="none" 
	d="
M64.043236,90.444077 
	C64.500664,89.229027 65.057693,88.318535 65.835602,87.175735 
	C67.639221,89.076843 69.221947,91.210258 70.944328,93.650665 
	C69.960304,94.200302 68.836632,94.442947 67.397255,94.819244 
	C66.101982,93.551483 65.122414,92.150055 64.043236,90.444077 
z"/>
<path fill="#1D1D1D" opacity="1.000000" stroke="none" 
	d="
M52.000343,63.999542 
	C55.236687,63.861496 56.154552,65.401093 55.067223,68.686508 
	C54.208138,68.727829 53.422043,68.421463 52.327999,68.043060 
	C52.014172,66.912506 52.008297,65.853981 52.001209,64.397728 
	C52.000000,64.000000 52.000343,63.999542 52.000343,63.999542 
z"/>
<path fill="#1F1F1F" opacity="1.000000" stroke="none" 
	d="
M22.497051,76.216797 
	C18.247229,76.570961 13.097185,73.100800 13.507439,69.729553 
	C13.786691,67.434807 16.006493,63.798729 17.649992,63.631809 
	C19.893829,63.403912 23.844395,65.443756 24.459766,67.351295 
	C25.251741,69.806282 23.464909,73.093193 22.497051,76.216797 
z"/>
<path fill="#2B2B2B" opacity="1.000000" stroke="none" 
	d="
M86.077301,73.672379 
	C84.696655,75.408981 83.399345,76.824654 81.738632,78.636871 
	C78.945847,75.430130 75.608719,73.027130 78.903458,68.204330 
	C80.635406,70.220238 82.274971,71.360771 84.486931,68.161957 
	C88.868462,68.779121 86.976753,71.210442 86.077301,73.672379 
z"/>
<path fill="#6F6F6F" opacity="1.000000" stroke="none" 
	d="
M91.135628,120.049614 
	C91.128288,115.023834 91.120949,109.998062 91.147675,104.509476 
	C95.140137,102.922081 96.128082,105.030220 95.923172,108.814102 
	C95.766602,111.899109 95.626556,114.588593 95.672928,117.605110 
	C95.811188,118.350883 95.763023,118.769608 95.307693,119.528427 
	C93.645561,119.928879 92.390594,119.989243 91.135628,120.049614 
z"/>
<path fill="#4F4F4F" opacity="1.000000" stroke="none" 
	d="
M92.177605,95.958977 
	C91.917213,95.242249 92.004616,94.621536 92.115387,93.696297 
	C93.309822,92.098389 94.480888,90.805016 96.228531,89.310799 
	C97.916107,89.453743 99.027107,89.797531 100.138115,90.141327 
	C98.860168,92.225250 97.582214,94.309166 96.133087,96.676865 
	C94.816414,96.658760 93.670906,96.356873 92.177605,95.958977 
z"/>
<path fill="#888888" opacity="1.000000" stroke="none" 
	d="
M91.102234,120.506653 
	C92.390594,119.989243 93.645561,119.928879 95.268517,119.841705 
	C95.668800,123.855186 95.701103,127.895477 95.676262,132.381805 
	C94.356941,132.617416 93.094757,132.406998 91.512619,132.118805 
	C91.151398,128.348587 91.110123,124.656143 91.102234,120.506653 
z"/>
<path fill="#414141" opacity="1.000000" stroke="none" 
	d="
M100.352692,89.909088 
	C99.027107,89.797531 97.916107,89.453743 96.460464,89.090149 
	C96.882668,87.825119 97.649513,86.579895 98.675583,85.141571 
	C100.060295,85.250015 101.185783,85.551575 102.651535,85.924751 
	C102.183624,87.223198 101.375443,88.450027 100.352692,89.909088 
z"/>
<path fill="#1F1F1F" opacity="1.000000" stroke="none" 
	d="
M76.259567,137.954926 
	C76.246788,137.779953 76.482101,137.740234 76.845512,137.840118 
	C76.961838,137.882843 76.495903,137.993271 76.259567,137.954926 
z"/>
<path fill="#1D1D1D" opacity="1.000000" stroke="none" 
	d="
M51.999771,64.000153 
	C51.638100,63.723618 51.276661,63.446930 50.915222,63.170238 
	C51.234665,63.319775 51.554108,63.469315 51.936947,63.809196 
	C52.000343,63.999542 52.000000,64.000000 51.999771,64.000153 
z"/>
</svg>
