<?xml version="1.0" standalone="no"?>
<!DOCTYPE svg PUBLIC "-//W3C//DTD SVG 20010904//EN"
 "http://www.w3.org/TR/2001/REC-SVG-20010904/DTD/svg10.dtd">
<svg version="1.0" xmlns="http://www.w3.org/2000/svg"
 width="160.000000pt" height="160.000000pt" viewBox="0 0 160.000000 160.000000"
 preserveAspectRatio="xMidYMid meet">

<g transform="translate(0.000000,160.000000) scale(0.100000,-0.100000)"
fill="#000000" stroke="none">
<path d="M0 800 l0 -800 800 0 800 0 0 800 0 800 -800 0 -800 0 0 -800z m1130
701 c13 -26 13 -31 -4 -31 -13 0 -26 20 -26 41 0 16 19 10 30 -10z m-580 -21
c0 -5 -4 -10 -10 -10 -5 0 -10 5 -10 10 0 6 5 10 10 10 6 0 10 -4 10 -10z
m297 -12 c23 -21 31 -48 15 -48 -10 0 -62 53 -62 63 0 14 24 6 47 -15z m453
-44 c0 -14 -4 -23 -10 -19 -5 3 -10 15 -10 26 0 10 5 19 10 19 6 0 10 -12 10
-26z m-396 -39 c-4 -8 -10 -15 -15 -15 -5 0 -9 7 -9 15 0 8 7 15 15 15 9 0 12
-6 9 -15z m604 -73 c4 -27 -14 -29 -28 -3 -14 27 -13 33 8 29 9 -2 18 -13 20
-26z m-1168 -241 c6 -13 6 -22 1 -26 -9 -5 -31 24 -31 39 0 14 20 4 30 -13z
m604 -217 c4 -10 1 -14 -6 -12 -15 5 -23 28 -10 28 5 0 13 -7 16 -16z m-320
-154 c40 -61 46 -76 46 -123 0 -53 16 -117 31 -127 5 -3 10 -53 11 -110 l3
-105 93 -3 92 -3 0 83 c0 81 8 113 26 106 10 -3 22 78 23 164 1 31 4 59 9 61
8 6 6 -405 -2 -439 -9 -33 -49 -44 -157 -44 -94 0 -101 1 -126 26 l-26 26 7
207 c6 204 6 206 -17 241 -38 58 -69 110 -64 110 2 0 25 -31 51 -70z m311
-130 c3 -5 2 -10 -4 -10 -5 0 -13 5 -16 10 -3 6 -2 10 4 10 5 0 13 -4 16 -10z
m645 -181 c0 -5 -4 -9 -10 -9 -5 0 -10 7 -10 16 0 8 5 12 10 9 6 -3 10 -10 10
-16z m-1405 -39 c3 -5 1 -10 -4 -10 -6 0 -11 5 -11 10 0 6 2 10 4 10 3 0 8 -4
11 -10z m143 -19 c3 -8 -1 -12 -9 -9 -7 2 -15 10 -17 17 -3 8 1 12 9 9 7 -2
15 -10 17 -17z m142 -76 c0 -8 -4 -15 -10 -15 -5 0 -10 7 -10 15 0 8 5 15 10
15 6 0 10 -7 10 -15z m130 -55 c0 -11 -2 -20 -5 -20 -2 0 -9 9 -15 20 -9 16
-8 20 5 20 8 0 15 -9 15 -20z m970 -20 c0 -5 -4 -10 -10 -10 -5 0 -10 5 -10
10 0 6 5 10 10 10 6 0 10 -4 10 -10z m-1093 -126 c-9 -9 -28 6 -21 18 4 6 10
6 17 -1 6 -6 8 -13 4 -17z"/>
<path d="M931 384 c0 -11 3 -14 6 -6 3 7 2 16 -1 19 -3 4 -6 -2 -5 -13z"/>
</g>
</svg>
